<svg width="40" height="40" viewBox="0 0 40 40" fill="none" xmlns="http://www.w3.org/2000/svg">
<path d="M26.6667 20V19.9984C26.6666 18.4561 26.1318 16.9615 25.1534 15.7693C24.1749 14.577 22.8134 13.761 21.3007 13.4601C19.788 13.1592 18.2178 13.392 16.8576 14.119C15.4973 14.846 14.4313 16.0222 13.841 17.447C13.2507 18.8719 13.1727 20.4574 13.6203 21.9333C14.0678 23.4093 15.0133 24.6844 16.2956 25.5414C17.5779 26.3984 19.1177 26.7842 20.6526 26.6333C22.1875 26.4823 23.6226 25.8038 24.7133 24.7134C25.3322 24.1151 25.8242 23.3982 26.1598 22.6056C26.4954 21.813 26.6678 20.9608 26.6667 20.1L26.665 19.995V20H26.6667ZM30.2667 20C30.2587 22.3641 29.4317 24.6524 27.9266 26.4754C26.4214 28.2985 24.331 29.5436 22.0112 29.999C19.6913 30.4543 17.2854 30.0917 15.2027 28.9729C13.1201 27.8541 11.4896 26.0482 10.5885 23.8625C9.68748 21.6769 9.57165 19.2465 10.2607 16.985C10.9498 14.7236 12.4013 12.7708 14.368 11.459C16.3348 10.1472 18.6954 9.55741 21.048 9.79006C23.4006 10.0227 25.6 11.0634 27.2717 12.735C28.221 13.6562 28.9755 14.7589 29.4903 15.9774C30.0051 17.196 30.2697 18.5055 30.2683 19.8284L30.2667 20.01V20.0017V20ZM33.0783 9.32337V9.3267C33.0785 9.88197 32.8862 10.4201 32.534 10.8494C32.1819 11.2788 31.6918 11.5727 31.1473 11.6812C30.6027 11.7897 30.0374 11.706 29.5476 11.4444C29.0578 11.1828 28.6739 10.7595 28.4613 10.2465C28.2487 9.7336 28.2205 9.1628 28.3815 8.63141C28.5425 8.10001 28.8829 7.6409 29.3445 7.33229C29.8061 7.02369 30.3604 6.88469 30.913 6.93898C31.4656 6.99327 31.9823 7.2375 32.375 7.63004C32.8017 8.04837 33.0667 8.6317 33.0667 9.2767V9.32504V9.32337H33.0783ZM20.0117 3.59004L18.02 3.5767C16.8133 3.56782 15.8972 3.56782 15.2717 3.5767C14.6461 3.58559 13.8083 3.6117 12.7583 3.65504C11.7833 3.68837 10.8583 3.78504 9.95335 3.93837L10.075 3.9217C9.36668 4.03837 8.73835 4.20504 8.13668 4.4267L8.20835 4.40337C7.35836 4.74506 6.58539 5.2535 5.93504 5.8987C5.28469 6.54389 4.77012 7.31279 4.42168 8.16004L4.40501 8.20504C4.19109 8.79056 4.03262 9.39488 3.93168 10.01L3.92335 10.0717C3.77511 10.9475 3.68657 11.8323 3.65835 12.72L3.65668 12.755C3.61335 13.8061 3.58724 14.6439 3.57835 15.2684C3.56946 15.8928 3.56946 16.8089 3.57835 18.0167C3.58724 19.2245 3.59168 19.8884 3.59168 20.0084C3.59168 20.1284 3.58724 20.7923 3.57835 22C3.56946 23.2078 3.56946 24.1239 3.57835 24.7484C3.58724 25.3728 3.61335 26.2106 3.65668 27.2617C3.69001 28.2367 3.78668 29.1617 3.94001 30.0667L3.92335 29.945C4.04001 30.6534 4.20668 31.2817 4.42835 31.8834L4.40501 31.8117C4.7467 32.6617 5.25514 33.4347 5.90034 34.085C6.54554 34.7354 7.31443 35.2499 8.16168 35.5984L8.20668 35.615C8.73668 35.8134 9.36501 35.98 10.0117 36.0884L10.0733 36.0967C10.855 36.2334 11.78 36.33 12.72 36.3617L12.755 36.3634C13.8061 36.4067 14.6439 36.4328 15.2683 36.4417C15.8928 36.4506 16.8089 36.4506 18.0167 36.4417L19.9967 36.4017L21.9883 36.415C23.195 36.4239 24.1111 36.4239 24.7367 36.415C25.3622 36.4062 26.2 36.38 27.25 36.3367C28.225 36.3034 29.15 36.2067 30.055 36.0534L29.9333 36.07C30.6417 35.9534 31.27 35.7867 31.8717 35.565L31.8 35.5884C32.65 35.2467 33.423 34.7382 34.0733 34.093C34.7237 33.4478 35.2382 32.679 35.5867 31.8317L35.6033 31.7867C35.8017 31.2567 35.9683 30.6284 36.0767 29.9817L36.085 29.92C36.2217 29.1384 36.3183 28.2134 36.35 27.2734L36.3517 27.2384C36.395 26.1873 36.4211 25.3495 36.43 24.725C36.4389 24.1006 36.4389 23.1845 36.43 21.9767C36.4211 20.7689 36.4167 20.105 36.4167 19.985C36.4167 19.865 36.4211 19.2011 36.43 17.9934C36.4389 16.7856 36.4389 15.8695 36.43 15.245C36.4211 14.6206 36.395 13.7828 36.3517 12.7317C36.3183 11.7567 36.2217 10.8317 36.0683 9.9267L36.085 10.0484C35.9793 9.38755 35.8102 8.73844 35.58 8.11004L35.6033 8.1817C35.2617 7.33171 34.7532 6.55875 34.108 5.9084C33.4628 5.25805 32.6939 4.74348 31.8467 4.39504L31.8017 4.37837C31.2162 4.16445 30.6118 4.00597 29.9967 3.90504L29.935 3.8967C29.0598 3.74854 28.1756 3.66 27.2883 3.6317L27.2533 3.63004C26.2022 3.5867 25.3645 3.56059 24.74 3.5517C24.1156 3.54282 23.1995 3.54282 21.9917 3.5517L20.0117 3.59004ZM40 20C40 23.9756 39.9556 26.7273 39.8667 28.255C39.9455 29.8033 39.6981 31.3509 39.1405 32.7975C38.5829 34.2441 37.7277 35.5574 36.6301 36.6523C35.5325 37.7471 34.2172 38.5992 32.7692 39.1533C31.3213 39.7073 29.7731 39.9509 28.225 39.8684L28.2517 39.87C26.7239 39.9589 23.9722 40.0034 19.9967 40.0034C16.0211 40.0034 13.2695 39.9589 11.7417 39.87C10.1934 39.9488 8.6458 39.7014 7.19922 39.1438C5.75265 38.5863 4.43936 37.731 3.34447 36.6334C2.24957 35.5359 1.3975 34.2205 0.843465 32.7726C0.289429 31.3247 0.0457937 29.7765 0.128347 28.2284L0.126681 28.255C0.0377916 26.7273 -0.00665283 23.9756 -0.00665283 20C-0.00665283 16.0245 0.0377916 13.2728 0.126681 11.745C0.0478996 10.1967 0.295307 8.64915 0.852869 7.20258C1.41043 5.75601 2.26571 4.44272 3.36327 3.34783C4.46084 2.25293 5.77621 1.40086 7.22413 0.846821C8.67206 0.292786 10.2202 0.0491506 11.7683 0.131704L11.7417 0.130037C13.2695 0.0411485 16.0211 -0.0032959 19.9967 -0.0032959C23.9722 -0.0032959 26.7239 0.0411485 28.2517 0.130037C29.8 0.0512565 31.3476 0.298663 32.7941 0.856226C34.2407 1.41379 35.554 2.26906 36.6489 3.36663C37.7438 4.4642 38.5959 5.77956 39.1499 7.22749C39.7039 8.67542 39.9476 10.2236 39.865 11.7717L39.8667 11.745C39.9556 13.2717 40 16.0234 40 20Z" fill="white"/>
</svg>
